<svg width="36" height="29" viewBox="0 0 36 29" fill="none" xmlns="http://www.w3.org/2000/svg">
<path d="M35.5 0L33.9 0.46875L5.265 9.18H0.5V19.18H5.26625L7.72625 19.9225L7.68875 20.0387V20.0788C6.88625 22.7188 8.3725 25.6537 11.1263 26.4837C11.1388 26.4875 11.1538 26.48 11.1637 26.4837C13.8175 27.29 16.755 25.8213 17.5712 23.0462L17.6087 22.9288L33.9 27.8913L35.5 28.3587V0ZM33 3.36V25L5.85 16.7175L5.69625 16.68H3V11.68H5.695L5.85125 11.6425L33 3.35875V3.36ZM10.1088 20.6637L15.2262 22.1887L15.1888 22.305V22.3425C14.7588 23.805 13.2063 24.52 11.8688 24.1012C10.4062 23.6725 9.65375 22.1588 10.0712 20.82V20.7825L10.1088 20.6637Z" fill="black"/>
</svg>
