<?xml version="1.0" standalone="no"?><!DOCTYPE svg PUBLIC "-//W3C//DTD SVG 1.1//EN" "http://www.w3.org/Graphics/SVG/1.1/DTD/svg11.dtd"><svg t="1651752332407" class="icon" viewBox="0 0 1024 1024" version="1.1" xmlns="http://www.w3.org/2000/svg" p-id="10703" xmlns:xlink="http://www.w3.org/1999/xlink" width="32" height="32"><defs><style type="text/css"></style></defs><path d="M512 85.333333c235.648 0 426.666667 191.018667 426.666667 426.666667s-191.018667 426.666667-426.666667 426.666667S85.333333 747.648 85.333333 512 276.352 85.333333 512 85.333333z m0 85.333334a341.333333 341.333333 0 1 0 0 682.666666 341.333333 341.333333 0 0 0 0-682.666666z m74.794667 426.752h124.928c10.112 0 17.322667 6.656 11.392 21.632a224.085333 224.085333 0 0 1-420.992 3.413333c-9.813333-21.418667 4.864-25.045333 9.642666-25.045333zM661.333333 362.666667a64 64 0 1 1 0 128 64 64 0 0 1 0-128z m-298.666666 0a64 64 0 1 1 0 128 64 64 0 0 1 0-128z" p-id="10704" fill="#bfbfbf"></path></svg>