<svg width="30" height="30" viewBox="0 0 30 30" fill="none" xmlns="http://www.w3.org/2000/svg">
<path fill-rule="evenodd" clip-rule="evenodd" d="M23.3333 5.29412C23.3333 3.89003 22.8065 2.54345 21.8689 1.55061C20.9312 0.557772 19.6594 0 18.3333 0H11.6667C10.3406 0 9.06881 0.557772 8.13113 1.55061C7.19345 2.54345 6.66667 3.89003 6.66667 5.29412H5C3.67392 5.29412 2.40215 5.85189 1.46447 6.84473C0.526784 7.83757 0 9.18415 0 10.5882V24.7059C0 26.11 0.526784 27.4566 1.46447 28.4494C2.40215 29.4422 3.67392 30 5 30H25C26.3261 30 27.5979 29.4422 28.5355 28.4494C29.4732 27.4566 30 26.11 30 24.7059V10.5882C30 9.18415 29.4732 7.83757 28.5355 6.84473C27.5979 5.85189 26.3261 5.29412 25 5.29412H23.3333ZM18.3333 3.52941H11.6667C11.2246 3.52941 10.8007 3.71534 10.4882 4.04628C10.1756 4.37723 10 4.82609 10 5.29412H20C20 4.82609 19.8244 4.37723 19.5118 4.04628C19.1993 3.71534 18.7754 3.52941 18.3333 3.52941ZM5 8.82353H25C25.442 8.82353 25.866 9.00945 26.1785 9.3404C26.4911 9.67135 26.6667 10.1202 26.6667 10.5882V24.7059C26.6667 25.1739 26.4911 25.6228 26.1785 25.9537C25.866 26.2847 25.442 26.4706 25 26.4706H5C4.55797 26.4706 4.13405 26.2847 3.82149 25.9537C3.50893 25.6228 3.33333 25.1739 3.33333 24.7059V10.5882C3.33333 10.1202 3.50893 9.67135 3.82149 9.3404C4.13405 9.00945 4.55797 8.82353 5 8.82353Z" fill="black"/>
</svg>
