<svg width="40" height="38" viewBox="0 0 40 38" fill="none" xmlns="http://www.w3.org/2000/svg">
<path d="M20 20.5833C20.9205 20.5833 21.6666 19.8744 21.6666 19C21.6666 18.1255 20.9205 17.4166 20 17.4166C19.0795 17.4166 18.3333 18.1255 18.3333 19C18.3333 19.8744 19.0795 20.5833 20 20.5833Z" fill="black"/>
<path d="M26.6667 20.5833C27.5871 20.5833 28.3333 19.8744 28.3333 19C28.3333 18.1255 27.5871 17.4166 26.6667 17.4166C25.7462 17.4166 25 18.1255 25 19C25 19.8744 25.7462 20.5833 26.6667 20.5833Z" fill="black"/>
<path d="M13.3334 20.5833C14.2538 20.5833 15 19.8744 15 19C15 18.1255 14.2538 17.4166 13.3334 17.4166C12.4129 17.4166 11.6667 18.1255 11.6667 19C11.6667 19.8744 12.4129 20.5833 13.3334 20.5833Z" fill="black"/>
<path d="M31.7833 7.80583C29.0487 5.19095 25.4394 3.56441 21.5777 3.20663C17.716 2.84884 13.8439 3.78223 10.629 5.84587C7.41405 7.90951 5.05774 10.9741 3.96629 14.5113C2.87483 18.0484 3.11664 21.8365 4.65001 25.2225C4.80983 25.5372 4.86227 25.8915 4.80001 26.2358L3.33335 32.9333C3.27684 33.1901 3.28838 33.4562 3.36693 33.7077C3.44547 33.9592 3.58857 34.1882 3.78335 34.3742C3.94302 34.5247 4.13314 34.6431 4.34224 34.722C4.55134 34.8009 4.77509 34.8388 5.00001 34.8333H5.33335L12.4667 33.4717C12.8292 33.4303 13.1969 33.4794 13.5333 33.6142C17.0975 35.0709 21.085 35.3006 24.8083 34.2637C28.5317 33.2268 31.7575 30.9883 33.9298 27.9341C36.1021 24.8799 37.0846 21.2015 36.7079 17.5328C36.3313 13.8642 34.6192 10.4354 31.8667 7.83749L31.7833 7.80583ZM33.1667 21.0425C32.8408 22.933 32.0678 24.7286 30.9059 26.2943C29.744 27.8599 28.2234 29.1548 26.4586 30.0815C24.6938 31.0082 22.7307 31.5426 20.717 31.6443C18.7034 31.7461 16.6917 31.4127 14.8333 30.6692C14.1743 30.4028 13.4662 30.2629 12.75 30.2575C12.4371 30.2596 12.125 30.2861 11.8167 30.3367L7.11668 31.2392L8.06668 26.7742C8.25589 25.8072 8.13392 24.8085 7.71668 23.9083C6.934 22.1429 6.58302 20.2318 6.69017 18.3188C6.79731 16.4059 7.35978 14.5409 8.33525 12.8643C9.31072 11.1878 10.6738 9.74319 12.3218 8.63937C13.9699 7.53555 15.86 6.80123 17.85 6.49166C19.9388 6.16599 22.0792 6.31745 24.0941 6.93351C26.1091 7.54956 27.9407 8.61251 29.4375 10.0344C30.9342 11.4563 32.0531 13.1964 32.7016 15.1106C33.3501 17.0248 33.5095 19.0581 33.1667 21.0425Z" fill="black"/>
</svg>
