<svg width="32" height="36" viewBox="0 0 32 36" fill="none" xmlns="http://www.w3.org/2000/svg">
<path d="M16 17.6667C20.6024 17.6667 24.3334 13.9357 24.3334 9.33333C24.3334 4.73096 20.6024 1 16 1C11.3976 1 7.66669 4.73096 7.66669 9.33333C7.66669 13.9357 11.3976 17.6667 16 17.6667Z" stroke="black" stroke-width="2"/>
<path d="M24.3334 21H24.92C26.1385 21.0003 27.3149 21.4456 28.2282 22.2521C29.1415 23.0587 29.7289 24.1709 29.88 25.38L30.5317 30.5867C30.5903 31.0557 30.5485 31.5319 30.409 31.9835C30.2695 32.4352 30.0356 32.852 29.7227 33.2063C29.4099 33.5607 29.0252 33.8444 28.5943 34.0387C28.1634 34.233 27.6961 34.3334 27.2234 34.3333H4.77669C4.30399 34.3334 3.83668 34.233 3.40576 34.0387C2.97485 33.8444 2.59019 33.5607 2.27731 33.2063C1.96444 32.852 1.7305 32.4352 1.59103 31.9835C1.45156 31.5319 1.40974 31.0557 1.46835 30.5867L2.11835 25.38C2.26951 24.1704 2.85738 23.0576 3.77141 22.251C4.68543 21.4444 5.86265 20.9995 7.08169 21H7.66669" stroke="black" stroke-width="2" stroke-linecap="round" stroke-linejoin="round"/>
</svg>
