<?xml version="1.0" standalone="no"?><!DOCTYPE svg PUBLIC "-//W3C//DTD SVG 1.1//EN" "http://www.w3.org/Graphics/SVG/1.1/DTD/svg11.dtd"><svg t="1651752668390" class="icon" viewBox="0 0 1024 1024" version="1.1" xmlns="http://www.w3.org/2000/svg" p-id="22541" xmlns:xlink="http://www.w3.org/1999/xlink" width="32" height="32"><defs><style type="text/css"></style></defs><path d="M86.016 905.216c-9.556992 0-17.408-3.072-23.552-9.216s-9.216-13.995008-9.216-23.552V151.552c0-9.556992 3.072-17.408 9.216-23.552s13.995008-9.216 23.552-9.216h851.968c9.556992 0 17.408 3.072 23.552 9.216s9.216 13.995008 9.216 23.552v720.896c0 9.556992-3.072 17.408-9.216 23.552s-13.995008 9.216-23.552 9.216H86.016z m323.584-233.472l-70.656-70.656c-6.827008-6.827008-14.676992-10.24-23.552-10.24s-16.724992 3.412992-23.552 10.24L118.784 774.144h797.696L668.672 477.184c-6.827008-8.192-15.36-12.288-25.6-12.288s-18.772992 4.096-25.6 12.288L457.728 668.672c-6.144 7.508992-13.995008 11.435008-23.552 11.776-9.556992 0.340992-17.748992-2.56-24.576-8.704zM249.856 380.928c0 17.748992 4.436992 34.132992 13.312 49.152 8.875008 15.019008 20.992 26.964992 36.352 35.84 15.36 8.875008 31.572992 13.312 48.64 13.312s33.451008-4.436992 49.152-13.312c15.700992-8.875008 27.819008-20.820992 36.352-35.84 8.532992-15.019008 12.8-31.403008 12.8-49.152-0.683008-27.988992-10.24-51.2-28.672-69.632s-41.643008-27.648-69.632-27.648-51.2 9.216-69.632 27.648-27.988992 41.643008-28.672 69.632z" p-id="22542" fill="#bfbfbf"></path></svg>